{
  "accessors": [
    {
      "bufferView": 2,
      "componentType": 5126,
      "count": 8883,
      "max": [
        209.71026611328125,
        1165.98486328125,
        724.3758544921875
      ],
      "min": [
        -322.3439636230469,
        -1097.56005859375,
        22.93951416015625
      ],
      "type": "VEC3"
    },
    {
      "bufferView": 2,
      "byteOffset": 106596,
      "componentType": 5126,
      "count": 8883,
      "max": [
        1.0,
        1.0,
        1.0
      ],
      "min": [
        -1.0,
        -1.0,
        -1.0
      ],
      "type": "VEC3"
    },
    {
      "bufferView": 1,
      "componentType": 5126,
      "count": 8883,
      "max": [
        0.9918680191040039,
        0.9879199862480164
      ],
      "min": [
        0.014035999774932861,
        0.007981999777257442
      ],
      "type": "VEC2"
    },
    {
      "bufferView": 0,
      "componentType": 5125,
      "count": 39018,
      "type": "SCALAR"
    },
    {
      "bufferView": 2,
      "byteOffset": 213192,
      "componentType": 5126,
      "count": 10801,
      "max": [
        198.0558319091797,
        745.162841796875,
        1324.0458984375
      ],
      "min": [
        -198.0559539794922,
        -1101.4588623046875,
        218.83102416992188
      ],
      "type": "VEC3"
    },
    {
      "bufferView": 2,
      "byteOffset": 342804,
      "componentType": 5126,
      "count": 10801,
      "max": [
        1.0,
        1.0,
        1.0
      ],
      "min": [
        -1.0,
        -1.0,
        -1.0
      ],
      "type": "VEC3"
    },
    {
      "bufferView": 1,
      "byteOffset": 71064,
      "componentType": 5126,
      "count": 10801,
      "max": [
        0.9913790225982666,
        0.9846940040588379
      ],
      "min": [
        0.2276570051908493,
        0.008856999687850475
      ],
      "type": "VEC2"
    },
    {
      "bufferView": 0,
      "byteOffset": 156072,
      "componentType": 5125,
      "count": 46476,
      "type": "SCALAR"
    },
    {
      "bufferView": 2,
      "byteOffset": 472416,
      "componentType": 5126,
      "count": 6213,
      "max": [
        195.8206787109375,
        1257.453125,
        1117.9671630859375
      ],
      "min": [
        -195.8209686279297,
        -1153.4998779296875,
        24.542236328125
      ],
      "type": "VEC3"
    },
    {
      "bufferView": 2,
      "byteOffset": 546972,
      "componentType": 5126,
      "count": 6213,
      "max": [
        1.0,
        1.0,
        1.0
      ],
      "min": [
        -1.0,
        -1.0,
        -1.0
      ],
      "type": "VEC3"
    },
    {
      "bufferView": 1,
      "byteOffset": 157472,
      "componentType": 5126,
      "count": 6213,
      "max": [
        0.8312259912490845,
        0.9376890063285828
      ],
      "min": [
        0.41662201285362244,
        0.008356999605894089
      ],
      "type": "VEC2"
    },
    {
      "bufferView": 0,
      "byteOffset": 341976,
      "componentType": 5125,
      "count": 27816,
      "type": "SCALAR"
    },
    {
      "bufferView": 2,
      "byteOffset": 621528,
      "componentType": 5126,
      "count": 10146,
      "max": [
        189.13265991210938,
        1161.67431640625,
        598.2103881835938
      ],
      "min": [
        -189.1329803466797,
        -1271.8994140625,
        347.8719482421875
      ],
      "type": "VEC3"
    },
    {
      "bufferView": 2,
      "byteOffset": 743280,
      "componentType": 5126,
      "count": 10146,
      "max": [
        1.0,
        1.0,
        1.0
      ],
      "min": [
        -1.0,
        -1.0,
        -1.0
      ],
      "type": "VEC3"
    },
    {
      "bufferView": 1,
      "byteOffset": 207176,
      "componentType": 5126,
      "count": 10146,
      "max": [
        0.9603919982910156,
        0.871068000793457
      ],
      "min": [
        0.014035999774932861,
        0.3980329930782318
      ],
      "type": "VEC2"
    },
    {
      "bufferView": 0,
      "byteOffset": 453240,
      "componentType": 5125,
      "count": 47250,
      "type": "SCALAR"
    },
    {
      "bufferView": 2,
      "byteOffset": 865032,
      "componentType": 5126,
      "count": 7719,
      "max": [
        322.3436279296875,
        1309.530517578125,
        722.0883178710938
      ],
      "min": [
        -265.7995300292969,
        -1173.9840087890625,
        197.12307739257813
      ],
      "type": "VEC3"
    },
    {
      "bufferView": 2,
      "byteOffset": 957660,
      "componentType": 5126,
      "count": 7719,
      "max": [
        1.0,
        1.0,
        1.0
      ],
      "min": [
        -1.0,
        -1.0,
        -1.0
      ],
      "type": "VEC3"
    },
    {
      "bufferView": 1,
      "byteOffset": 288344,
      "componentType": 5126,
      "count": 7719,
      "max": [
        0.9291970133781433,
        0.9318400025367737
      ],
      "min": [
        0.015856999903917313,
        0.007842999882996082
      ],
      "type": "VEC2"
    },
    {
      "bufferView": 0,
      "byteOffset": 642240,
      "componentType": 5125,
      "count": 32670,
      "type": "SCALAR"
    },
    {
      "bufferView": 2,
      "byteOffset": 1050288,
      "componentType": 5126,
      "count": 10911,
      "max": [
        322.4451904296875,
        1329.421630859375,
        711.949951171875
      ],
      "min": [
        -322.4451904296875,
        -1329.4217529296875,
        1.9945679903030396
      ],
      "type": "VEC3"
    },
    {
      "bufferView": 2,
      "byteOffset": 1181220,
      "componentType": 5126,
      "count": 10911,
      "max": [
        1.0,
        1.0,
        1.0
      ],
      "min": [
        -1.0,
        -1.0,
        -1.0
      ],
      "type": "VEC3"
    },
    {
      "bufferView": 1,
      "byteOffset": 350096,
      "componentType": 5126,
      "count": 10911,
      "max": [
        0.9289659857749939,
        0.966159999370575
      ],
      "min": [
        0.009176000021398067,
        0.007747000083327293
      ],
      "type": "VEC2"
    },
    {
      "bufferView": 0,
      "byteOffset": 772920,
      "componentType": 5125,
      "count": 49476,
      "type": "SCALAR"
    },
    {
      "bufferView": 2,
      "byteOffset": 1312152,
      "componentType": 5126,
      "count": 4231,
      "max": [
        288.1850280761719,
        768.3770751953125,
        747.0384521484375
      ],
      "min": [
        -186.34141540527344,
        -1030.0823974609375,
        353.16546630859375
      ],
      "type": "VEC3"
    },
    {
      "bufferView": 2,
      "byteOffset": 1362924,
      "componentType": 5126,
      "count": 4231,
      "max": [
        1.0,
        1.0,
        1.0
      ],
      "min": [
        -1.0,
        -1.0,
        -1.0
      ],
      "type": "VEC3"
    },
    {
      "bufferView": 1,
      "byteOffset": 437384,
      "componentType": 5126,
      "count": 4231,
      "max": [
        0.9727680087089539,
        0.871068000793457
      ],
      "min": [
        0.14920499920845032,
        0.22635500133037567
      ],
      "type": "VEC2"
    },
    {
      "bufferView": 0,
      "byteOffset": 970824,
      "componentType": 5125,
      "count": 18690,
      "type": "SCALAR"
    },
    {
      "bufferView": 2,
      "byteOffset": 1413696,
      "componentType": 5126,
      "count": 10619,
      "max": [
        167.08042907714844,
        1155.7677001953125,
        610.5110473632813
      ],
      "min": [
        -167.08045959472656,
        -436.97100830078125,
        218.7496337890625
      ],
      "type": "VEC3"
    },
    {
      "bufferView": 2,
      "byteOffset": 1541124,
      "componentType": 5126,
      "count": 10619,
      "max": [
        1.0,
        1.0,
        1.0
      ],
      "min": [
        -1.0,
        -1.0,
        -1.0
      ],
      "type": "VEC3"
    },
    {
      "bufferView": 1,
      "byteOffset": 471232,
      "componentType": 5126,
      "count": 10619,
      "max": [
        0.9910719990730286,
        0.9913579821586609
      ],
      "min": [
        0.44583800435066223,
        0.16732199490070343
      ],
      "type": "VEC2"
    },
    {
      "bufferView": 0,
      "byteOffset": 1045584,
      "componentType": 5125,
      "count": 48372,
      "type": "SCALAR"
    },
    {
      "bufferView": 2,
      "byteOffset": 1668552,
      "componentType": 5126,
      "count": 8313,
      "max": [
        265.7991027832031,
        1204.675048828125,
        776.029296875
      ],
      "min": [
        -83.83873748779297,
        -1271.8994140625,
        334.19525146484375
      ],
      "type": "VEC3"
    },
    {
      "bufferView": 2,
      "byteOffset": 1768308,
      "componentType": 5126,
      "count": 8313,
      "max": [
        1.0,
        1.0,
        1.0
      ],
      "min": [
        -1.0,
        -1.0,
        -1.0
      ],
      "type": "VEC3"
    },
    {
      "bufferView": 1,
      "byteOffset": 556184,
      "componentType": 5126,
      "count": 8313,
      "max": [
        0.9919400215148926,
        0.9220470190048218
      ],
      "min": [
        0.4327490031719208,
        0.21231700479984283
      ],
      "type": "VEC2"
    },
    {
      "bufferView": 0,
      "byteOffset": 1239072,
      "componentType": 5125,
      "count": 36714,
      "type": "SCALAR"
    },
    {
      "bufferView": 2,
      "byteOffset": 1868064,
      "componentType": 5126,
      "count": 11802,
      "max": [
        2.4601008892059326,
        -1026.494140625,
        624.8873901367188
      ],
      "min": [
        -2.4621450901031494,
        -1130.126220703125,
        421.6192626953125
      ],
      "type": "VEC3"
    },
    {
      "bufferView": 2,
      "byteOffset": 2009688,
      "componentType": 5126,
      "count": 11802,
      "max": [
        0.9999778866767883,
        0.9999658465385437,
        0.9977275133132935
      ],
      "min": [
        -0.9999836087226868,
        -0.9998632669448853,
        -0.9992744326591492
      ],
      "type": "VEC3"
    },
    {
      "bufferView": 1,
      "byteOffset": 622688,
      "componentType": 5126,
      "count": 11802,
      "max": [
        0.5740129947662354,
        0.730338990688324
      ],
      "min": [
        0.52634197473526,
        0.6857889890670776
      ],
      "type": "VEC2"
    },
    {
      "bufferView": 0,
      "byteOffset": 1385928,
      "componentType": 5125,
      "count": 50880,
      "type": "SCALAR"
    },
    {
      "bufferView": 2,
      "byteOffset": 2151312,
      "componentType": 5126,
      "count": 4610,
      "max": [
        295.5654296875,
        1309.530517578125,
        655.0653686523438
      ],
      "min": [
        46.24234390258789,
        -739.95263671875,
        22.93951416015625
      ],
      "type": "VEC3"
    },
    {
      "bufferView": 2,
      "byteOffset": 2206632,
      "componentType": 5126,
      "count": 4610,
      "max": [
        1.0,
        1.0,
        1.0
      ],
      "min": [
        -1.0,
        -1.0,
        -1.0
      ],
      "type": "VEC3"
    },
    {
      "bufferView": 1,
      "byteOffset": 717104,
      "componentType": 5126,
      "count": 4610,
      "max": [
        0.9918680191040039,
        0.9822970032691956
      ],
      "min": [
        0.34596699476242065,
        0.3112829923629761
      ],
      "type": "VEC2"
    },
    {
      "bufferView": 0,
      "byteOffset": 1589448,
      "componentType": 5125,
      "count": 20628,
      "type": "SCALAR"
    }
  ],
  "asset": {
    "extras": {
      "author": "Aditya Graphical (https://sketchfab.com/Adityakm)",
      "license": "CC-BY-4.0 (http://creativecommons.org/licenses/by/4.0/)",
      "source": "https://sketchfab.com/3d-models/low-poly-boat-512861944de047a69e9ae447323f6c3e",
      "title": "Low poly Boat"
    },
    "generator": "Sketchfab-12.67.0",
    "version": "2.0"
  },
  "bufferViews": [
    {
      "buffer": 0,
      "byteLength": 1671960,
      "name": "floatBufferViews",
      "target": 34963
    },
    {
      "buffer": 0,
      "byteLength": 753984,
      "byteOffset": 1671960,
      "byteStride": 8,
      "name": "floatBufferViews",
      "target": 34962
    },
    {
      "buffer": 0,
      "byteLength": 2261952,
      "byteOffset": 2425944,
      "byteStride": 12,
      "name": "floatBufferViews",
      "target": 34962
    }
  ],
  "buffers": [
    {
      "byteLength": 4687896,
      "uri": "scene.bin"
    }
  ],
  "materials": [
    {
      "doubleSided": true,
      "name": "material_0",
      "pbrMetallicRoughness": {
        "metallicFactor": 0.0,
        "roughnessFactor": 0.6
      }
    }
  ],
  "meshes": [
    {
      "name": "Object_0",
      "primitives": [
        {
          "attributes": {
            "NORMAL": 1,
            "POSITION": 0,
            "TEXCOORD_0": 2
          },
          "indices": 3,
          "material": 0,
          "mode": 4
        }
      ]
    },
    {
      "name": "Object_1",
      "primitives": [
        {
          "attributes": {
            "NORMAL": 5,
            "POSITION": 4,
            "TEXCOORD_0": 6
          },
          "indices": 7,
          "material": 0,
          "mode": 4
        }
      ]
    },
    {
      "name": "Object_2",
      "primitives": [
        {
          "attributes": {
            "NORMAL": 9,
            "POSITION": 8,
            "TEXCOORD_0": 10
          },
          "indices": 11,
          "material": 0,
          "mode": 4
        }
      ]
    },
    {
      "name": "Object_3",
      "primitives": [
        {
          "attributes": {
            "NORMAL": 13,
            "POSITION": 12,
            "TEXCOORD_0": 14
          },
          "indices": 15,
          "material": 0,
          "mode": 4
        }
      ]
    },
    {
      "name": "Object_4",
      "primitives": [
        {
          "attributes": {
            "NORMAL": 17,
            "POSITION": 16,
            "TEXCOORD_0": 18
          },
          "indices": 19,
          "material": 0,
          "mode": 4
        }
      ]
    },
    {
      "name": "Object_5",
      "primitives": [
        {
          "attributes": {
            "NORMAL": 21,
            "POSITION": 20,
            "TEXCOORD_0": 22
          },
          "indices": 23,
          "material": 0,
          "mode": 4
        }
      ]
    },
    {
      "name": "Object_6",
      "primitives": [
        {
          "attributes": {
            "NORMAL": 25,
            "POSITION": 24,
            "TEXCOORD_0": 26
          },
          "indices": 27,
          "material": 0,
          "mode": 4
        }
      ]
    },
    {
      "name": "Object_7",
      "primitives": [
        {
          "attributes": {
            "NORMAL": 29,
            "POSITION": 28,
            "TEXCOORD_0": 30
          },
          "indices": 31,
          "material": 0,
          "mode": 4
        }
      ]
    },
    {
      "name": "Object_8",
      "primitives": [
        {
          "attributes": {
            "NORMAL": 33,
            "POSITION": 32,
            "TEXCOORD_0": 34
          },
          "indices": 35,
          "material": 0,
          "mode": 4
        }
      ]
    },
    {
      "name": "Object_9",
      "primitives": [
        {
          "attributes": {
            "NORMAL": 37,
            "POSITION": 36,
            "TEXCOORD_0": 38
          },
          "indices": 39,
          "material": 0,
          "mode": 4
        }
      ]
    },
    {
      "name": "Object_10",
      "primitives": [
        {
          "attributes": {
            "NORMAL": 41,
            "POSITION": 40,
            "TEXCOORD_0": 42
          },
          "indices": 43,
          "material": 0,
          "mode": 4
        }
      ]
    }
  ],
  "nodes": [
    {
      "children": [
        1
      ],
      "matrix": [
        1.0,
        0.0,
        0.0,
        0.0,
        0.0,
        2.220446049250313e-16,
        -1.0,
        0.0,
        0.0,
        1.0,
        2.220446049250313e-16,
        0.0,
        0.0,
        0.0,
        0.0,
        1.0
      ],
      "name": "Sketchfab_model"
    },
    {
      "children": [
        2,
        3,
        4,
        5,
        6,
        7,
        8,
        9,
        10,
        11,
        12
      ],
      "name": "Boat.obj.cleaner.materialmerger.gles"
    },
    {
      "mesh": 0,
      "name": "Object_2"
    },
    {
      "mesh": 1,
      "name": "Object_3"
    },
    {
      "mesh": 2,
      "name": "Object_4"
    },
    {
      "mesh": 3,
      "name": "Object_5"
    },
    {
      "mesh": 4,
      "name": "Object_6"
    },
    {
      "mesh": 5,
      "name": "Object_7"
    },
    {
      "mesh": 6,
      "name": "Object_8"
    },
    {
      "mesh": 7,
      "name": "Object_9"
    },
    {
      "mesh": 8,
      "name": "Object_10"
    },
    {
      "mesh": 9,
      "name": "Object_11"
    },
    {
      "mesh": 10,
      "name": "Object_12"
    }
  ],
  "scene": 0,
  "scenes": [
    {
      "name": "Sketchfab_Scene",
      "nodes": [
        0
      ]
    }
  ]
}
